<?xml version="1.0" standalone="yes"?>
<svg width="512" height="512">
<path style="fill:#000000; stroke:none;" d="M0 0L0 512L286 512L286 511C273.066 508.006 261.639 499.872 252 491L251 491C228.899 511.296 192.821 521.747 175.981 489C172.333 481.905 170.255 473.887 169.286 466C168.843 462.394 170.138 456.8 167.397 453.966C163.138 449.564 155.181 447.476 150 444.136C139.216 437.183 129.712 428.567 121.174 419C96.4149 391.261 90.328 352.394 97.4491 317C99.6125 306.247 108.834 291.549 108.303 281C108.002 275.015 99.0587 267.577 96.2701 262C89.079 247.618 87.4901 231.514 91.4784 216C99.5945 184.429 129.524 165.649 161 167.039C168.137 167.355 181.802 175.612 187.787 173.583C191.975 172.163 194.433 163.627 196.247 160C202.98 146.534 210.216 132.892 216 119C211.063 119.624 205.985 120.949 201 120.152C188.806 118.203 181.338 105.325 187 94C191.354 85.2921 200.002 79.9125 208 75C200.947 70.2559 192.119 68.0912 186.789 60.9599C178.914 50.4226 184.91 36.5653 197 32.7747C210.068 28.6775 223.758 33.2774 236 38C238.885 24.0619 245.449 7.44873 259 1L235 0L183 0L0 0z"/>
<path style="fill:#ffffff; stroke:none;" d="M236 38C224.159 31.7607 206.785 28.1867 194 33.4822C181.522 38.6506 179.364 55.6534 189.185 64.4822C194.526 69.2838 201.599 71.9668 208 75C199.705 78.5789 191.133 84.7336 187 93C180.982 105.036 187.946 118.319 201 120.37C205.933 121.145 211.144 119.905 216 119C208.695 131.516 203.226 145.054 196.753 158C194.68 162.146 192.261 170.603 188.073 173.007C185.16 174.679 179.803 171.039 177 170.079C168.468 167.156 159.917 166.898 151 167.004C116.762 167.411 91.3163 197.33 89.0895 230C88.2873 241.769 91.6949 254.711 97.3125 265C99.9228 269.781 107.198 275.705 107.787 281C108.897 290.982 99.1898 306.669 97.2608 317C90.6501 352.403 96.0246 389.416 119.465 418C127.79 428.153 137.985 437.034 149 444.136C154.382 447.606 163.178 449.851 167.397 454.637C170.101 457.705 168.823 463.228 169.286 467C170.295 475.212 172.48 483.723 176.515 491C192.132 519.169 232.874 514.631 251 491L252 491C270.645 515.363 311.104 521.333 327.56 492C331.285 485.361 333.645 477.524 334.715 470C335.374 465.361 334.884 459.089 339.148 456.074C349.965 448.426 362.572 444.312 373 435.562C400.799 412.235 416.404 376.413 413.91 340C413.025 327.07 410.421 314.514 407.116 302C405.922 297.479 401.923 290.909 402.388 286.285C402.896 281.233 410.538 275.44 413.123 271C418.843 261.179 422.137 250.35 422.91 239C425.357 203.099 396.072 172.494 361 170.09C347.15 169.14 335.896 174.313 323 178L294 107C305.146 107 318.835 109.138 329 103.583C338.756 98.2509 342.16 84.7608 334.772 76.0146C329.611 69.9049 322.974 68.0915 316 65C330.438 58.6893 341.489 36.086 321.996 27.5332C310.065 22.2982 294.302 27.6403 283 32C283.062 24.5248 285.11 17.2189 282.005 10C277.205 -1.16174 262.195 -3.02991 253.039 3.78937C243.402 10.9677 237.558 26.4373 236 38z"/>
<path style="fill:#000000; stroke:none;" d="M272 0L272 1C285.38 7.94556 283.035 19.3785 283 32C294.507 28.8591 306.794 23.1169 319 26.8002C342.282 33.8254 329.531 56.5122 316 65C321.383 68.3872 327.15 69.5134 331.985 74.0934C342.013 83.5935 339.699 98.0089 327 104.081C317.107 108.811 304.641 107 294 107L323 178C335.742 175.736 346.446 169.166 360 170.09C394.033 172.409 426.187 203.266 422.83 239C421.761 250.385 418.555 261.227 412.533 271C409.722 275.562 401.958 281.4 402.103 287C402.379 297.58 409.37 310.294 411.389 321C416.602 348.64 413.368 378.106 399.688 403C390.683 419.388 376.575 433.465 361 443.656C354.318 448.028 342.967 451.063 337.6 456.699C333.851 460.635 334.792 469.904 333.525 475C329.735 490.233 319.9 507.986 303 511L303 512L512 512L512 0L272 0z"/>
<path style="fill:#24bed0; stroke:none;" d="M251 70L250 70C242.03 54.9539 216.251 45.131 200 49C201.738 54.5587 208.128 56.3169 213 58.7531C225.316 64.911 235.935 73.841 248 80L248 81C234.398 81.009 204.507 87.7574 202 104L235 94.6697L248.363 89.49L258 70L259 70C260.947 75.0173 263.315 85.7205 267.699 88.9722C270.94 91.376 278.168 90 282 90C294.257 90 310.582 92.8182 322 88L322 86C304.307 77.6947 284.798 77.8172 266 81C275.761 71.2396 285.994 63.1216 298 56.2809C303.813 52.969 312.903 49.8191 315 43C295.558 43 269.736 52.0321 262 72L261 72L264.247 37L266 16C250.699 25.174 248.073 54.2348 251 70z"/>
<path style="fill:#7cd8e3; stroke:none;" d="M265 29L265 32L266 32L265 29z"/>
<path style="fill:#7dd9e3; stroke:none;" d="M264 35L264 38L265 38L264 35z"/>
<path style="fill:#b5e9ef; stroke:none;" d="M263 41L263 45L264 45L263 41z"/>
<path style="fill:#77d7e2; stroke:none;" d="M306 42L306 43L314 43L306 42z"/>
<path style="fill:#9be1e9; stroke:none;" d="M315.333 43.6667L315.667 44.3333L315.333 43.6667z"/>
<path style="fill:#a6e4ec; stroke:none;" d="M212 48L212 49L215 49L212 48z"/>
<path style="fill:#9de2ea; stroke:none;" d="M262 48L262 52L263 52L262 48z"/>
<path style="fill:#8adce6; stroke:none;" d="M250 49L250 54L251 54L250 49z"/>
<path style="fill:#8ddde6; stroke:none;" d="M261 57L261 64L262 64L261 57z"/>
<path style="fill:#95dfe8; stroke:none;" d="M250 67L251 70L250 67z"/>
<path style="fill:#fee600; stroke:none;" d="M258 70C255.161 74.8655 249.582 83.2171 249.889 89C250.276 96.2998 254.791 100.262 251.08 107.996C247.191 116.101 238.627 113.413 234.074 119.303C223.228 133.334 217.07 154.081 209.244 170C207.437 173.675 204.398 177.884 203.85 182C202.487 192.249 208.876 198.919 198 207L204 228L242 226C235.537 205.432 265.102 193.563 273.002 215C274.59 219.31 272.883 223.719 272 228L308 230C308.973 218.858 318.439 210.989 314 200C309.486 202.362 304.332 205.342 299 204.517C277.899 201.251 284.966 175.63 301 171C300.006 165.405 295.753 150.071 290.582 147.117C282.805 142.675 275.354 147.4 270.765 136C266.618 125.695 276.98 122.693 277.153 114C277.23 110.115 274.229 105.534 272.799 102C268.876 92.2997 265.297 77.5197 258 70z"/>
<path style="fill:#8adce6; stroke:none;" d="M281 78L281 79L294 79L281 78z"/>
<path style="fill:#bdebf1; stroke:none;" d="M245 81L248 81L247 79L245 81z"/>
<path style="fill:#a7e5ec; stroke:none;" d="M298 79L298 80L303 80L298 79z"/>
<path style="fill:#83dae4; stroke:none;" d="M268.667 80.3333L269.333 80.6667L268.667 80.3333z"/>
<path style="fill:#9ce2ea; stroke:none;" d="M305.667 80.3333L306.333 80.6667L305.667 80.3333z"/>
<path style="fill:#80d9e4; stroke:none;" d="M234.667 82.3333L235.333 82.6667L234.667 82.3333z"/>
<path style="fill:#ea62ae; stroke:none;" d="M248 90L235 117C249.847 115.818 257.68 103.71 250 90L248 90z"/>
<path style="fill:#c5eef2; stroke:none;" d="M282 90L282 91L298 91L282 90z"/>
<path style="fill:#7cd8e3; stroke:none;" d="M298 90L298 91L312 91L298 90z"/>
<path style="fill:#ea62ae; stroke:none;" d="M291 146L279 116C260.229 124.833 272.268 149.475 291 146z"/>
<path style="fill:#f4a25a; stroke:none;" d="M269 128L269 133L270 133L269 128z"/>
<path style="fill:#ea62ae; stroke:none;" d="M238 146.654C215.759 153.52 227.631 184.963 249.996 177.467C268.222 171.358 256.58 140.917 238 146.654z"/>
<path style="fill:#f39966; stroke:none;" d="M245 146L245 147L248 147L245 146z"/>
<path style="fill:#f5ad4c; stroke:none;" d="M298 171L298 172L302 172L298 171z"/>
<path style="fill:#ea62ae; stroke:none;" d="M295.999 172.657C275.208 178.828 286.992 209.518 307.995 203.057C318.259 199.9 305.266 169.907 295.999 172.657z"/>
<path style="fill:#f49e5f; stroke:none;" d="M245 178L245 179L248 179L245 178z"/>
<path style="fill:#a1e3d9; stroke:none;" d="M150 183L150 184L161 184L150 183z"/>
<path style="fill:#14b9a1; stroke:none;" d="M130 274C112.992 317.838 98.8286 367.725 133.3 408C139.357 415.077 146.334 421.681 154 426.975C163.784 433.731 174.69 439.314 186 443C186.394 438.171 187.635 433.497 189.453 429C190.896 425.431 192.672 421.934 195.213 419.015C215.492 395.721 236.073 432.943 257 432.427C262.278 432.297 266.073 426.874 270 423.9C281.91 414.879 297.879 406.399 309.787 420.015C312.332 422.926 314.107 426.434 315.547 430C317.484 434.795 318.591 439.859 319 445C365.882 432.203 401.574 388.815 396.83 339C395.582 325.897 393.04 312.503 388.91 300C387.17 294.729 381.697 286.575 382.238 281.039C382.775 275.535 394.095 268.95 397.301 264C407.663 248.003 408.442 225.118 397.899 209C373.248 171.315 313.695 185.903 308 230L254 227.015L204 229C203.92 219.493 200.356 210.466 194.482 203C189.134 196.201 182.135 190.329 174 187.232C150.806 178.402 124.066 186.935 111.904 209C100.669 229.382 106.012 264.707 130 274z"/>
<path style="fill:#7dd8cb; stroke:none;" d="M163 184L163 185L166 185L163 184z"/>
<path style="fill:#ea62ae; stroke:none;" d="M202 184C198.438 192.555 192.428 198.852 197 208C206.121 203.155 207.266 192.96 204 184L202 184z"/>
<path style="fill:#ade7de; stroke:none;" d="M168.667 185.333L169.333 185.667L168.667 185.333z"/>
<path style="fill:#93dfd4; stroke:none;" d="M348 187L348 188L351 188L348 187z"/>
<path style="fill:#a8e5dc; stroke:none;" d="M363.667 187.333L364.333 187.667L363.667 187.333z"/>
<path style="fill:#ea62ae; stroke:none;" d="M252 203.653C245.395 205.724 236.454 217.355 242.028 224.397C244.749 227.834 266.712 229.18 270.57 227.382C275.093 225.273 274.227 216.59 272.583 213.001C269.007 205.195 260.341 201.037 252 203.653z"/>
<path style="fill:#f4a654; stroke:none;" d="M306.667 203.333L307.333 203.667L306.667 203.333z"/>
<path style="fill:#f4a951; stroke:none;" d="M297 204L297 205L303 205L297 204z"/>
<path style="fill:#622a81; stroke:none;" d="M150.04 213.801C139.06 217.217 140.862 247.304 152.958 243.353C163.466 239.92 162.214 210.014 150.04 213.801z"/>
<path style="fill:#f6b146; stroke:none;" d="M240 217L240 222L241 222L240 217z"/>
<path style="fill:#622a81; stroke:none;" d="M356.188 218.032C349.553 221.718 349.74 234.892 352.148 240.999C353.482 244.384 356.818 248.737 360.956 246.914C368.051 243.788 368.683 229.235 366.258 223.005C364.758 219.152 360.323 215.736 356.188 218.032z"/>
<path style="fill:#74d6c7; stroke:none;" d="M107.333 220.667L107.667 221.333L107.333 220.667z"/>
<path style="fill:#a1d440; stroke:none;" d="M308.333 225.667L308.667 226.333L308.333 225.667z"/>
<path style="fill:#90d14b; stroke:none;" d="M229 226L229 227L242 227L229 226z"/>
<path style="fill:#b279ab; stroke:none;" d="M242 226L242 227L251 227L242 226z"/>
<path style="fill:#445f8d; stroke:none;" d="M367 226L367 237L368 237L367 226z"/>
<path style="fill:#78cc5d; stroke:none;" d="M220 227L220 228L224 228L220 227z"/>
<path style="fill:#7691a7; stroke:none;" d="M259 227L259 228L266 228L259 227z"/>
<path style="fill:#53c576; stroke:none;" d="M204 228L204 229L215 229L204 228z"/>
<path style="fill:#93d149; stroke:none;" d="M271 228L271 229L281 229L271 228z"/>
<path style="fill:#367a93; stroke:none;" d="M350 228L350 236L351 236L350 228z"/>
<path style="fill:#a6e4db; stroke:none;" d="M405 228L405 231L406 231L405 228z"/>
<path style="fill:#90d14b; stroke:none;" d="M292 229L292 230L299 230L292 229z"/>
<path style="fill:#44c7b4; stroke:none;" d="M405 231L405 242L406 242L405 231z"/>
<path style="fill:#98e0d6; stroke:none;" d="M107.333 243.667L107.667 244.333L107.333 243.667z"/>
<path style="fill:#84dace; stroke:none;" d="M404.333 246.667L404.667 247.333L404.333 246.667z"/>
<path style="fill:#622a81; stroke:none;" d="M221 261C221.006 270.581 223.731 278.01 229 286C245.666 267.531 264.28 266.914 281 286L282 286C287.684 278.544 289.994 271.305 290 262L221 261z"/>
<path style="fill:#43638d; stroke:none;" d="M255 261L255 262L290 262L255 261z"/>
<path style="fill:#ea62ae; stroke:none;" d="M248 271.529C242.517 272.788 226.818 280.258 231.647 287.826C238.036 297.838 254.776 298.584 265 296.1C267.408 295.515 269.782 294.735 272 293.622C293.63 282.767 260.377 268.688 248 271.529z"/>
<path style="fill:#7990a7; stroke:none;" d="M161 273L161 274L171 274L161 273z"/>
<path style="fill:#8989a9; stroke:none;" d="M157.667 274.333L158.333 274.667L157.667 274.333z"/>
<path style="fill:#ea62ae; stroke:none;" d="M159 274.468C114.659 282.779 130.019 350.465 174 342.535C219.102 334.404 203.902 266.051 159 274.468z"/>
<path style="fill:#7a8fa7; stroke:none;" d="M174.667 274.333L175.333 274.667L174.667 274.333z"/>
<path style="fill:#868aa8; stroke:none;" d="M337 276L337 277L346 277L337 276z"/>
<path style="fill:#9385a9; stroke:none;" d="M333.667 277.333L334.333 277.667L333.667 277.333z"/>
<path style="fill:#ea62ae; stroke:none;" d="M335 277.465C308.941 282.165 299.63 315.686 316.468 334.91C324.985 344.634 337.636 347.613 350 345.384C373.706 341.11 385.062 312.008 372.034 292C364.04 279.724 349.038 274.933 335 277.465z"/>
<path style="fill:#7990a7; stroke:none;" d="M350.667 277.333L351.333 277.667L350.667 277.333z"/>
<path style="fill:#6e94a6; stroke:none;" d="M263.667 296.333L264.333 296.667L263.667 296.333z"/>
<path style="fill:#9186a9; stroke:none;" d="M250 297L250 298L261 298L250 297z"/>
<path style="fill:#9286a8; stroke:none;" d="M376.333 301.667L376.667 302.333L376.333 301.667z"/>
<path style="fill:#b179ab; stroke:none;" d="M377 305L377 317L378 317L377 305z"/>
<path style="fill:#76d6c8; stroke:none;" d="M390.333 305.667L390.667 306.333L390.333 305.667z"/>
<path style="fill:#6cd3c4; stroke:none;" d="M116.333 309.667L116.667 310.333L116.333 309.667z"/>
<path style="fill:#63d1c1; stroke:none;" d="M115.333 313.667L115.667 314.333L115.333 313.667z"/>
<path style="fill:#90ded3; stroke:none;" d="M393 316L393 319L394 319L393 316z"/>
<path style="fill:#70d4c6; stroke:none;" d="M114.333 317.667L114.667 318.333L114.333 317.667z"/>
<path style="fill:#6f95a7; stroke:none;" d="M200.333 317.667L200.667 318.333L200.333 317.667z"/>
<path style="fill:#8989a8; stroke:none;" d="M308 317L308 320L309 320L308 317z"/>
<path style="fill:#94dfd4; stroke:none;" d="M113 321L113 324L114 324L113 321z"/>
<path style="fill:#85dbce; stroke:none;" d="M394.333 321.667L394.667 322.333L394.333 321.667z"/>
<path style="fill:#a4e4db; stroke:none;" d="M395 326L395 329L396 329L395 326z"/>
<path style="fill:#93dfd4; stroke:none;" d="M112 327L112 330L113 330L112 327z"/>
<path style="fill:#90ded3; stroke:none;" d="M396 333L396 337L397 337L396 333z"/>
<path style="fill:#5acebd; stroke:none;" d="M111 334L111 353L112 353L111 334z"/>
<path style="fill:#6c95a7; stroke:none;" d="M162 343L162 344L171 344L162 343z"/>
<path style="fill:#9685a9; stroke:none;" d="M349 345L349 346L352 346L349 345z"/>
<path style="fill:#7891a7; stroke:none;" d="M338 346L338 347L348 347L338 346z"/>
<path style="fill:#94dfd4; stroke:none;" d="M396 353L396 360L397 360L396 353z"/>
<path style="fill:#76d6c8; stroke:none;" d="M395 362L395 365L396 365L395 362z"/>
<path style="fill:#a7e5dc; stroke:none;" d="M113.333 366.667L113.667 367.333L113.333 366.667z"/>
<path style="fill:#9fe2d9; stroke:none;" d="M394.333 368.667L394.667 369.333L394.333 368.667z"/>
<path style="fill:#9ee2d8; stroke:none;" d="M114.333 370.667L114.667 371.333L114.333 370.667z"/>
<path style="fill:#f7931c; stroke:none;" d="M245 473C233.05 465.449 224.47 472.999 211 473L211 472L234 466C232.706 457.199 230.494 451.609 234 443L211 432L211 431L235 442L246 433C241.813 427.06 236.085 422.61 230 418.698C226.253 416.289 222.244 414.14 218 412.749C184.289 401.705 182.144 454.484 188.435 475C191.929 486.394 200.069 495.846 213 493.535C218.673 492.522 224.044 489.994 229 487.124C235.198 483.535 240.871 478.857 245 473z"/>
<path style="fill:#80a661; stroke:none;" d="M213.667 411.333L214.333 411.667L213.667 411.333z"/>
<path style="fill:#9da251; stroke:none;" d="M292 412L292 413L299 413L292 412z"/>
<path style="fill:#a9a04a; stroke:none;" d="M288.667 413.333L289.333 413.667L288.667 413.333z"/>
<path style="fill:#f7931c; stroke:none;" d="M259 434L270 439.979L293 432L293 433L271 443C273.495 452.429 272.208 457.979 269 467L291 474L291 475L268 469.615L257 473C262.357 478.794 268.28 484.019 275 488.186C279.315 490.862 283.919 493.78 289 494.671C330.341 501.92 331.231 402.18 287 414.159C282.642 415.339 278.817 417.449 275 419.814C268.86 423.619 263.18 428.07 259 434z"/>
<path style="fill:#ad6612; stroke:none;" d="M211 431L211 432L234 443C230.098 436.073 218.545 432.13 211 431z"/>
<path style="fill:#cfdd20; stroke:none;" d="M247 432L247 433L255 433L247 432z"/>
<path style="fill:#6fca62; stroke:none;" d="M255.667 432.333L256.333 432.667L255.667 432.333z"/>
<path style="fill:#ad6612; stroke:none;" d="M270 443L293 433C286.375 430.65 273.231 437.109 270 443z"/>
<path style="fill:#fee600; stroke:none;" d="M245 433.638C219.17 441.104 233.444 480.43 259 473.061C285.223 465.5 271.323 426.029 245 433.638z"/>
<path style="fill:#8fa559; stroke:none;" d="M317.333 435.667L317.667 436.333L317.333 435.667z"/>
<path style="fill:#af9f46; stroke:none;" d="M318 440L318 445L319 445L318 440z"/>
<path style="fill:#fbc688; stroke:none;" d="M185 444L185 461L186 461L185 444z"/>
<path style="fill:#ad6612; stroke:none;" d="M210 452L210 453L231 456C227.467 450.999 215.734 452.004 210 452M274 456L294 454C289.063 451.928 277.481 451.427 274 456z"/>
<path style="fill:#fbc688; stroke:none;" d="M318 462L318 465L319 465L318 462z"/>
<path style="fill:#ad6612; stroke:none;" d="M211 472L211 473C219.787 473 229.43 472.635 236 466L211 472M267 468C273.785 473.621 282.453 474.994 291 475C286.221 471.716 272.662 467.333 267 468z"/>
<path style="fill:#fabf79; stroke:none;" d="M317 468L317 471L318 471L317 468z"/>
<path style="fill:#fcd5a6; stroke:none;" d="M187.333 471.667L187.667 472.333L187.333 471.667z"/>
<path style="fill:#fef27a; stroke:none;" d="M245.667 473.333L246.333 473.667L245.667 473.333z"/>
<path style="fill:#fff7aa; stroke:none;" d="M249 474L249 475L255 475L249 474z"/>
<path style="fill:#fabf79; stroke:none;" d="M203.667 493.333L204.333 493.667L203.667 493.333z"/>
<path style="fill:#fabe77; stroke:none;" d="M291 495L291 496L298 496L291 495z"/>
</svg>
